<svg width="31" height="30" viewBox="0 0 31 30" fill="none" xmlns="http://www.w3.org/2000/svg">
<path d="M20.95 17.5C21.05 16.675 21.125 15.85 21.125 15C21.125 14.15 21.05 13.325 20.95 12.5H25.175C25.375 13.3 25.5 14.1375 25.5 15C25.5 15.8625 25.375 16.7 25.175 17.5H20.95ZM18.7375 24.45C19.4875 23.0625 20.0625 21.5625 20.4625 20H24.15C22.939 22.0853 21.0176 23.665 18.7375 24.45V24.45ZM18.425 17.5H12.575C12.45 16.675 12.375 15.85 12.375 15C12.375 14.15 12.45 13.3125 12.575 12.5H18.425C18.5375 13.3125 18.625 14.15 18.625 15C18.625 15.85 18.5375 16.675 18.425 17.5ZM15.5 24.95C14.4625 23.45 13.625 21.7875 13.1125 20H17.8875C17.375 21.7875 16.5375 23.45 15.5 24.95ZM10.5 10H6.85C8.04857 7.90902 9.96849 6.32686 12.25 5.55C11.5 6.9375 10.9375 8.4375 10.5 10ZM6.85 20H10.5C10.9375 21.5625 11.5 23.0625 12.25 24.45C9.97328 23.6646 8.05606 22.0846 6.85 20V20ZM5.825 17.5C5.625 16.7 5.5 15.8625 5.5 15C5.5 14.1375 5.625 13.3 5.825 12.5H10.05C9.95 13.325 9.875 14.15 9.875 15C9.875 15.85 9.95 16.675 10.05 17.5H5.825ZM15.5 5.0375C16.5375 6.5375 17.375 8.2125 17.8875 10H13.1125C13.625 8.2125 14.4625 6.5375 15.5 5.0375V5.0375ZM24.15 10H20.4625C20.0713 8.45182 19.492 6.95737 18.7375 5.55C21.0375 6.3375 22.95 7.925 24.15 10ZM15.5 2.5C8.5875 2.5 3 8.125 3 15C3 18.3152 4.31696 21.4946 6.66117 23.8388C7.8219 24.9996 9.19989 25.9203 10.7165 26.5485C12.233 27.1767 13.8585 27.5 15.5 27.5C18.8152 27.5 21.9946 26.183 24.3388 23.8388C26.683 21.4946 28 18.3152 28 15C28 13.3585 27.6767 11.733 27.0485 10.2165C26.4203 8.69989 25.4996 7.3219 24.3388 6.16117C23.1781 5.00043 21.8001 4.07969 20.2835 3.45151C18.767 2.82332 17.1415 2.5 15.5 2.5V2.5Z" fill="white"/>
</svg>
